<?xml version="1.0" encoding="utf-8"?>
<!-- Generator: Adobe Illustrator 16.0.0, SVG Export Plug-In . SVG Version: 6.00 Build 0)  -->
<!DOCTYPE svg PUBLIC "-//W3C//DTD SVG 1.1//EN" "http://www.w3.org/Graphics/SVG/1.1/DTD/svg11.dtd">
<svg version="1.1" id="Layer_1" xmlns="http://www.w3.org/2000/svg" xmlns:xlink="http://www.w3.org/1999/xlink" x="0px" y="0px"
	 width="485.711px" height="479.46px" viewBox="0 0 485.711 479.46" enable-background="new 0 0 485.711 479.46"
	 xml:space="preserve">
<g>
	<g>
		<g>
			<path fill="#5E6163" d="M179.711,36.72c-171.36,159.121,159.119,434.522,306,189.72
				C424.512,287.639,142.991,287.639,179.711,36.72z"/>
			<path fill="#5E6163" d="M485.711,226.44c-61.199,61.199-342.72,61.199-306-189.72C8.352,195.841,338.831,471.242,485.711,226.44z
				"/>
			<path fill="#5E6163" d="M57.312,73.44c-214.2,232.56,226.44,605.878,428.4,275.399C424.512,428.4,26.711,483.478,57.312,73.44z"
				/>
			<path fill="#5E6163" d="M485.711,128.521C436.75,165.24,271.511,146.88,302.112,0C191.951,67.32,344.952,275.399,485.711,128.521
				z"/>
		</g>
	</g>
</g>
</svg>
